<?xml version="1.0" encoding="iso-8859-1"?>
<!-- Generator: Adobe Illustrator 16.0.0, SVG Export Plug-In . SVG Version: 6.00 Build 0)  -->
<!DOCTYPE svg PUBLIC "-//W3C//DTD SVG 1.1//EN" "http://www.w3.org/Graphics/SVG/1.1/DTD/svg11.dtd">
<svg version="1.1" id="Capa_1" xmlns="http://www.w3.org/2000/svg" xmlns:xlink="http://www.w3.org/1999/xlink" x="0px" y="0px"
	 width="426.001px" height="426.001px" viewBox="0 0 426.001 426.001" style="enable-background:new 0 0 426.001 426.001;"
	 xml:space="preserve">
<g>
	<path d="M406.813,54.222H19.189C8.591,54.222,0,62.814,0,73.411v279.178c0,10.598,8.592,19.189,19.189,19.189h387.623
		c10.599,0,19.189-8.594,19.189-19.189V73.411C426.002,62.813,417.41,54.222,406.813,54.222z M368.436,81.938
		c9.854,0,17.845,7.988,17.845,17.844c0,9.857-7.99,17.846-17.845,17.846c-9.856,0-17.846-7.988-17.846-17.846
		C350.59,89.927,358.578,81.938,368.436,81.938z M320.461,81.938c9.855,0,17.844,7.988,17.844,17.844
		c0,9.857-7.987,17.846-17.844,17.846s-17.846-7.988-17.846-17.846C302.615,89.927,310.604,81.938,320.461,81.938z M272.488,81.938
		c9.854,0,17.844,7.988,17.844,17.844c0,9.857-7.988,17.846-17.844,17.846c-9.857,0-17.846-7.988-17.846-17.846
		C254.643,89.927,262.631,81.938,272.488,81.938z M387.623,333.399H38.379V141.55h349.244V333.399L387.623,333.399z"/>
</g>
<g>
</g>
<g>
</g>
<g>
</g>
<g>
</g>
<g>
</g>
<g>
</g>
<g>
</g>
<g>
</g>
<g>
</g>
<g>
</g>
<g>
</g>
<g>
</g>
<g>
</g>
<g>
</g>
<g>
</g>
</svg>
